<?xml version="1.0" encoding="utf-8"?>
<!-- Generator: Adobe Illustrator 26.5.1, SVG Export Plug-In . SVG Version: 6.00 Build 0)  -->
<svg version="1.1" id="그룹_843" xmlns="http://www.w3.org/2000/svg" xmlns:xlink="http://www.w3.org/1999/xlink" x="0px" y="0px"
	 viewBox="0 0 128.9 39.7" style="enable-background:new 0 0 128.9 39.7;" xml:space="preserve">
<style type="text/css">
	.st0{fill:#043D61;}
</style>
<g>
	<g>
		<polygon class="st0" points="9.3,17.4 8.5,17.4 8.5,12.8 6.4,12.8 6.4,24.8 8.5,24.8 8.5,19.2 9.3,19.2 9.3,25.4 11.5,25.4 
			11.5,12.6 9.3,12.6 		"/>
		<path class="st0" d="M5.8,20.5c-1.3,0.2-2.4,0.3-3.4,0.3v-4.9h3V14H0.2v8.6h1.1c1.7,0,3.1-0.1,4.7-0.3h0.2L6,20.5L5.8,20.5z"/>
		<polygon class="st0" points="13.3,21.4 18.3,21.4 18.3,25.4 20.6,25.4 20.6,21.4 25.6,21.4 25.6,19.5 13.3,19.5 		"/>
		<path class="st0" d="M19.4,19c3,0,4.9-1.2,4.9-3s-2-3-4.9-3c-3,0-4.9,1.2-4.9,3S16.5,19,19.4,19z M16.8,16c0-0.7,1-1.2,2.6-1.2
			S22,15.2,22,16c0,0.8-1,1.2-2.6,1.2S16.8,16.8,16.8,16z"/>
		<polygon class="st0" points="34.1,19.4 31.8,19.4 31.8,22.1 26.8,22.1 26.8,24 39.1,24 39.1,22.1 34.1,22.1 		"/>
		<path class="st0" d="M28.2,20.3c2.2-0.4,3.8-1.3,4.7-2.8c0.9,1.4,2.6,2.3,4.8,2.7h0.1l0.9-1.8h-0.3c-2.8-0.4-4.1-1.8-4.3-3.1H38
			v-1.8H27.8v1.8h3.9c-0.3,1.6-1.9,2.9-4.3,3.2h-0.3l0.9,1.8H28.2z"/>
		<path class="st0" d="M44.5,18.1c0.6,1.1,1.6,1.9,2.8,2.3h0.1l1.2-1.7l-0.2-0.1c-1.8-0.6-2.8-2-2.8-3.7v-1.5h-2.3v1.5
			c0,1.9-1.1,3.4-2.9,4L40.1,19l1.2,1.7h0.1C42.8,20.2,43.9,19.3,44.5,18.1z"/>
		<polygon class="st0" points="49.4,22.2 51.7,22.2 51.7,12.6 49.4,12.6 49.4,15.2 47,15.2 47,17.1 49.4,17.1 		"/>
		<polygon class="st0" points="44.9,20.9 42.6,20.9 42.6,25.2 51.9,25.2 51.9,23.4 44.9,23.4 		"/>
		<path class="st0" d="M57.1,16.4c-1.8,0-3.1,1.3-3.1,3.2c0,1.8,1.3,3.1,3.1,3.1s3.1-1.3,3.1-3.1C60.2,17.8,58.9,16.4,57.1,16.4z
			 M58.2,19.6c0,0.8-0.4,1.3-1,1.3s-1-0.5-1-1.3c0-0.8,0.4-1.3,1-1.3C57.8,18.3,58.2,18.8,58.2,19.6z"/>
		<polygon class="st0" points="63.3,17.7 62.7,17.7 62.7,12.8 60.5,12.8 60.5,24.9 62.7,24.9 62.7,19.5 63.3,19.5 63.3,25.4 
			65.4,25.4 65.4,12.6 63.3,12.6 		"/>
		<polygon class="st0" points="58.2,12.9 56,12.9 56,14.5 53.8,14.5 53.8,16.3 60.4,16.3 60.4,14.5 58.2,14.5 		"/>
		<polygon class="st0" points="78,12.6 75.7,12.6 75.7,20.2 78,20.2 78,18.7 79.7,18.7 79.7,16.8 78,16.8 78,16 79.7,16 79.7,14.1 
			78,14.1 		"/>
		<path class="st0" d="M73.5,20.1c-2.9,0-4.6,1-4.6,2.6s1.8,2.7,4.6,2.7c2.9,0,4.6-1,4.6-2.7C78.1,21.1,76.4,20.1,73.5,20.1z
			 M75.9,22.8c0,0.7-1.3,0.9-2.4,0.9c-1.6,0-2.4-0.3-2.4-0.9c0-0.7,1.3-0.9,2.4-0.9S75.9,22,75.9,22.8z"/>
		<path class="st0" d="M74.9,16.5c0-1.8-1.6-3.2-3.7-3.2c-2.2,0-3.8,1.4-3.8,3.2s1.6,3.2,3.8,3.2C73.3,19.7,74.9,18.3,74.9,16.5z
			 M69.6,16.5c0-0.8,0.6-1.3,1.5-1.3s1.5,0.5,1.5,1.3c0,0.8-0.6,1.3-1.5,1.3C70.2,17.8,69.6,17.3,69.6,16.5z"/>
		<polygon class="st0" points="85.4,20.8 83.2,20.8 83.2,25.2 92.5,25.2 92.5,23.4 85.4,23.4 		"/>
		<path class="st0" d="M87.6,16.3V18h2.3v4h2.3v-9.4h-2.3v3.6h-2.2c0.3-0.8,0.4-1.6,0.4-2.5v-0.2h-6.5v1.8h4c-0.4,1.6-2.1,3-4.6,3.7
			l-0.2,0.1l1,1.8h0.1C84.8,20,86.7,18.4,87.6,16.3z"/>
		<polygon class="st0" points="103.3,19.3 105.6,19.3 105.6,12.6 103.3,12.6 103.3,14.4 100.9,14.4 100.9,16.2 103.3,16.2 		"/>
		<path class="st0" d="M98.4,17.1c0.6,1,1.6,1.7,2.8,2.1h0.1l1.2-1.7l-0.3-0.1c-1.8-0.5-2.8-1.8-2.8-3.3V13h-2.3v1.1
			c0,1.7-1.1,3-3,3.5l-0.3,0.1l1.2,1.7h0.1C96.7,19,97.8,18.2,98.4,17.1z"/>
		<polygon class="st0" points="98.8,23.2 105.6,23.2 105.6,19.4 96.6,19.4 96.6,21.2 103.4,21.2 103.4,21.5 96.6,21.5 96.6,25.3 
			106,25.3 106,23.5 98.8,23.5 		"/>
		<path class="st0" d="M112.2,13.3l-1.7-0.7l-0.1,0.1c-1.5,2.3-2.2,4.5-2.2,7.1c0,2.5,0.7,4.8,2.2,7.1l0.1,0.1l1.7-0.7l-0.1-0.2
			c-1.1-1.8-1.7-4-1.7-6.4C110.4,17.4,111,15.2,112.2,13.3L112.2,13.3z"/>
		<path class="st0" d="M113.8,19.1c2.1-0.3,3.8-1.1,4.7-2.3c0.9,1.2,2.5,2.1,4.7,2.3h0.1l0.8-1.8h-0.3c-2.6-0.3-3.7-1.4-4-2.3h3.7
			v-1.8h-10.1V15h3.7c-0.3,0.9-1.5,2-4,2.3h-0.3l0.9,1.8H113.8z"/>
		<polygon class="st0" points="112.4,21.3 117.3,21.3 117.3,25.4 119.6,25.4 119.6,21.3 124.6,21.3 124.6,19.5 112.4,19.5 		"/>
		<path class="st0" d="M126.5,12.7L126.5,12.7l-1.8,0.6l0.1,0.2c1.1,1.8,1.7,4,1.7,6.3s-0.6,4.5-1.7,6.4l-0.1,0.2l1.7,0.7l0.1-0.1
			c1.5-2.3,2.2-4.5,2.2-7.1C128.7,17.2,128,15,126.5,12.7z"/>
	</g>
</g>
</svg>
